<svg xmlns="http://www.w3.org/2000/svg" version="1.1" xmlns:xlink="http://www.w3.org/1999/xlink" xmlns:svgjs="http://svgjs.dev/svgjs" viewBox="0 0 8.015917164822062 8.015917164822062"><g transform="matrix(1,0,0,1,2.676324361042704,2.676324361042704)"><rect width="8.015917164822062" height="8.015917164822062" x="-2.6763243610427043" y="-2.6763243610427043" fill="#ffffff"></rect><g><path d=" M 0.5645768919231304 -1.5846063970343716 L 0.7061530352059765 -1.61820281279097 L 1.0488400801376858 -0.8423787008848764 L 0.9243670951037743 -0.8128409125351155 L 0.8675396388762142 -0.9529189940921314 L 0.7193122673854494 -0.9177442232328741 L 0.7324316525323992 -0.7672940938583848 L 0.6074835797693505 -0.7376435658584338 L 0.5645768919231304 -1.5846063970343716 M 0.8313027752150663 -1.0421789117681617 L 0.6783508054069901 -1.4329498112410146 L 0.6731248403864823 -1.4317096750889253 L 0.7115806674725256 -1.0137685199203 L 0.8313027752150663 -1.0421789117681617 M 1.147602890105756 -1.6831440304575898 L 1.2789504467419117 -1.6829822649480932 Q 1.3087355804028986 -1.68294558206304 1.3407158732667832 -1.6811972099846066 Q 1.3726961661306678 -1.6794488379061732 1.4032028966533028 -1.6706221971485733 Q 1.4337096271759375 -1.6617955563909736 1.4607866650447128 -1.6434516479908514 Q 1.4878637029134878 -1.625107739590729 1.5083309081433298 -1.5921235231433708 Q 1.5287981133731718 -1.5591393066960124 1.5406993556514705 -1.5090757832380621 Q 1.5526005979297695 -1.459012259780112 1.5525115968316077 -1.386746689586242 L 1.5522133228810113 -1.1445593732608397 Q 1.5521243217828495 -1.0722938030669698 1.5400995002770355 -1.0220156057489722 Q 1.5280746787712216 -0.9717374084309746 1.507526590786631 -0.939047846560255 Q 1.4869785028020406 -0.9063582846895355 1.4598563630254133 -0.8880811271130344 Q 1.4327342232487859 -0.8698039695365335 1.402205843810382 -0.8610524986253542 Q 1.371677464371978 -0.8523010277141748 1.3396929619966937 -0.85063143363479 Q 1.3077084596214097 -0.8489618395554052 1.2779233259604228 -0.8489985224404584 L 1.1465757693242673 -0.8491602879499551 L 1.147602890105756 -1.6831440304575898 M 1.305375901160585 -0.9373436855728463 Q 1.3395555627387667 -0.9373015904588509 1.3617831672224694 -0.9460632844691433 Q 1.384010771706172 -0.9548249784794359 1.3969775768420094 -0.977025822497813 Q 1.4099443819778466 -0.99922666651619 1.4148743974382818 -1.0375507019840087 Q 1.4198044128987168 -1.0758747374518274 1.4198765759512806 -1.1344684430144247 L 1.4201952961001032 -1.3932573092492295 Q 1.420267459152667 -1.4518510148118267 1.4154318570193358 -1.4901870774550727 Q 1.4105962548860047 -1.5285231400983188 1.3976841733983614 -1.5507558561315782 Q 1.3847720919107183 -1.5729885721648373 1.3625661363427848 -1.581804989823324 Q 1.340360180774851 -1.5906214074818106 1.3061805191966693 -1.590663502595806 L 1.273953981137241 -1.5907031922747161 L 1.2731493631011563 -0.9373833752517563 L 1.305375901160585 -0.9373436855728463 M 1.6879000389861105 -0.9988248650046809 Q 1.6941328960861868 -1.0249470336388555 1.7024896588366536 -1.0462955294631942 Q 1.7108464215871204 -1.0676440252875328 1.7231402847807273 -1.091818024631977 L 1.8186049374256201 -1.0690397650480623 L 1.8091989894382325 -1.0296190378364898 Q 1.8013795868945004 -0.9968475899136162 1.7994104415687995 -0.9707120585870361 Q 1.7974412962430986 -0.944576527260456 1.8025664417742553 -0.9250310751041132 Q 1.8076915873054122 -0.9054856229477704 1.8210309077464897 -0.893016023393503 Q 1.8343702281875673 -0.8805464238392355 1.856692808656771 -0.875220164135534 Q 1.8918389991827516 -0.866834138219068 1.9149516408061316 -0.8816498909969062 Q 1.9380642824295113 -0.8964656437747444 1.946903607044165 -0.9335116283832102 Q 1.9514365940260383 -0.9525095692080645 1.95262075375994 -0.9690436303588875 Q 1.9538049134938418 -0.9855776915097106 1.9511328227254991 -1.0027808757965977 Q 1.9484607319571565 -1.0199840600834849 1.941673266603825 -1.0399261486007416 Q 1.9348858012504935 -1.0598682371179986 1.9228872648627324 -1.0853206088296459 L 1.8310283848245015 -1.2683767460767479 Q 1.807257961398073 -1.3202313865412854 1.7993308261639696 -1.3690587355267088 Q 1.791403690929866 -1.4178860845121326 1.8034161064318313 -1.4682306276979964 Q 1.8130487037683125 -1.5086012519508116 1.833680891457604 -1.5393194930394367 Q 1.8543130791468956 -1.5700377341280618 1.8838967259171258 -1.5888313492127197 Q 1.9134803726873557 -1.6076249642973777 1.9516188421776104 -1.6128316335558937 Q 1.989757311667865 -1.6180383028144094 2.033927524085651 -1.6074991080815535 Q 2.0875967069158645 -1.5946934198577605 2.1198289306372784 -1.5709390542695907 Q 2.152061154358692 -1.547184688681421 2.1675409547102173 -1.5173877552545028 Q 2.1830207550617424 -1.4875908218275842 2.1844978611849664 -1.4548601357683904 Q 2.1859749673081903 -1.422129449709196 2.178608863462646 -1.3912577958688082 Q 2.17237600636257 -1.3651356272346336 2.16306934657086 -1.3440137807593886 Q 2.1537626867791504 -1.3228919342841436 2.1421920712776927 -1.2975413885493627 L 2.0472023671534214 -1.3202063234587307 L 2.056381665791715 -1.3586771536290607 Q 2.0717938215300853 -1.423270152433565 2.0614868681304985 -1.4621235824859402 Q 2.0511799147309113 -1.5009770125383153 2.0093844449162317 -1.5109495838984373 Q 1.974713202910873 -1.5192222851403563 1.953025406849357 -1.5040665583388777 Q 1.9313376107878413 -1.4889108315373991 1.9236315329186562 -1.4566143321351468 Q 1.9195518446349698 -1.4395161853927778 1.9188776459365289 -1.425119392584751 Q 1.918203447238088 -1.410722599776724 1.9204139521782149 -1.3978964519387589 Q 1.9226244571183415 -1.385070304100794 1.9271422174130846 -1.3724466180083001 Q 1.9316599777078276 -1.3598229319158062 1.9378508827359624 -1.3457960500838824 L 2.039560205907941 -1.1388040615391097 Q 2.0663802444223807 -1.0786919465197837 2.076115498886857 -1.0269232315585193 Q 2.0858507533513326 -0.9751545165972546 2.07338503915118 -0.9229101793289054 Q 2.063072493767418 -0.8796898639523619 2.04126375968779 -0.8482483751715878 Q 2.019455025608162 -0.8168068863908137 1.9885031956133412 -0.798590719590107 Q 1.9575513656185206 -0.7803745527894003 1.9188137980218807 -0.7758128190633259 Q 1.8800762304252407 -0.7712510853372515 1.8354310694868332 -0.7819036047446545 Q 1.7803370410947559 -0.7950492669920879 1.7475165441781741 -0.8184420087341832 Q 1.7146960472615924 -0.8418347504762784 1.6988654479752094 -0.8712133977198488 Q 1.6830348486888265 -0.9005920449634192 1.681614404902876 -0.9335602052829239 Q 1.6801939611169254 -0.9665283656024286 1.6879000389861105 -0.9988248650046809" fill="#404040" fill-rule="nonzero"></path></g><g><path d=" M -1.3425775795526411 1.3379593673523762 L -1.50252086323112 1.3425290191354189 Q -1.52414979181464 1.34302503442674 -1.5394702828946334 1.343376378591426 Q -1.546218989425081 1.343981986048787 -1.5511756188921377 1.3440956562197148 Q -1.5485715386127017 1.4576475312831954 -1.5441090240742055 1.494964884410312 Q -1.5391649059011785 1.533623711921996 -1.5408226454898364 1.5399734840331327 Q -1.5424803850784943 1.5463232561442695 -1.5464324726688792 1.5509222857996257 Q -1.5543366478496488 1.5601203451103378 -1.5640246054443505 1.560342518626242 Q -1.573712563039052 1.5605646921421463 -1.5808932439469618 1.552163412848992 Q -1.5880739248548714 1.5437621335558378 -1.5875240636619106 1.5284209751720392 Q -1.5833609477492212 1.4543877983702795 -1.5885551125703528 1.3949960808067707 Q -1.593749277391484 1.335604363243262 -1.595041122518983 1.328420554511845 Q -1.5963329676464817 1.321236745780428 -1.5953356315982048 1.3155783781653798 Q -1.5943382955499281 1.309920010550332 -1.5908368106383666 1.3053313145468783 Q -1.583414239092128 1.2947917808515987 -1.5685236833871528 1.2953519756964622 Q -1.4381445044286711 1.2991245904789828 -1.2802082655010922 1.295502645487148 Q -1.122272026573513 1.2918807004953134 -1.0814873173140502 1.2911708063375467 Q -1.040702608054587 1.2904609121797799 -1.0069074071428368 1.2896858882870907 Q -0.9343810431560848 1.2871209649731377 -0.9044676332738457 1.2841807637275031 Q -0.8745542233916065 1.2812405624818686 -0.8686188861776343 1.2844857450983107 Q -0.8626835489636621 1.287730927714753 -0.8598662627197943 1.2926255552703945 Q -0.856557039189493 1.299312259889427 -0.8581217759110282 1.3097174561099738 Q -0.8608419812828856 1.3287151041838714 -0.8601289593016115 1.3598066890226816 Q -0.8587545835985758 1.4197368453061852 -0.855775086747775 1.441534240143653 Q -0.8527955898969743 1.463331634981121 -0.8546786308250439 1.469686573918209 Q -0.8565616717531136 1.476041512855297 -0.8600734903165775 1.4801796061799273 Q -0.8670764601397004 1.4893569981868342 -0.8774403217526372 1.4895946721805924 Q -0.8878041833655739 1.4898323461743503 -0.8947492292821694 1.4818765027340683 Q -0.9016942751987648 1.4739206592937861 -0.901338714389508 1.459936475772409 Q -0.9009831535802513 1.4459522922510317 -0.9002183246997812 1.4301553643624587 Q -0.8994534958193112 1.4143584364738857 -0.8989656365377656 1.3963136620171472 Q -0.8984818552611076 1.3584320360402795 -0.9013755550731807 1.3305463382127454 Q -0.9405779881308108 1.3314453659282648 -0.9793401521615203 1.3318834573130587 Q -1.0253119590534028 1.3324868871282927 -1.0726355739817557 1.3331213178992343 Q -1.1997365303656438 1.334683599699276 -1.2601172893279706 1.3360683090542143 Q -1.258825582840155 1.3923936439071312 -1.2555122813049664 1.4189172000462928 Q -1.2516967088314415 1.4476834359276687 -1.2573840383997532 1.4552527176029866 Q -1.2630713679680647 1.4628219992783043 -1.2729846269021783 1.4630493396201598 Q -1.2977677742374616 1.4636176904747986 -1.297930935025775 1.41718494725219 Q -1.2976973390369047 1.4077119573449974 -1.2978730111192474 1.4000517118050009 L -1.2982594342445286 1.3635425611684082 L -1.2988691197067777 1.3369570031178313 L -1.3425775795526411 1.3379593673523762 M -1.3587387115610143 1.7338196848555592 L -1.146035369928131 1.6968287472469743 Q -0.9967786707588452 1.6711926338079028 -0.8644564790130519 1.637489458097598 Q -0.8446956363871571 1.6327234009479965 -0.8364792890084338 1.645946451241774 Q -0.8315521948558816 1.6533319621868174 -0.8314979093622489 1.664298346811279 Q -0.8314029097483917 1.6834895199040871 -0.8268250323485575 1.7101425018986025 Q -0.8222471549487234 1.7367954838931179 -0.8199268529571785 1.7489732849956054 Q -0.8176065509656335 1.761151086098093 -0.8150259918124689 1.773512846405536 Q -0.8083524857462699 1.8043790981958123 -0.8050742387516147 1.8154777216734896 Q -0.8017959917569594 1.826576345151167 -0.8025428348082977 1.8328784579265884 Q -0.803289677859636 1.83918057070201 -0.8060804292255991 1.8442331180210738 Q -0.8125503646906755 1.8544908085725291 -0.8225452329386188 1.856207512597467 Q -0.8325401011865621 1.8579242166224048 -0.8405767099051412 1.8510727913740088 Q -0.8486133186237201 1.8442213661256126 -0.8503503797087704 1.8301141036434962 Q -0.8520874407938204 1.81600684116138 -0.8538762222306105 1.7989358743398605 Q -0.8556650036674007 1.781864907518341 -0.8585778973940372 1.762243089432366 Q -0.8642646603073906 1.7211462898374508 -0.8709245950001813 1.69302163420329 L -0.9477740264177005 1.7062211807061451 Q -0.9930840958083764 1.7140035722858633 -1.0402473286220175 1.7216469393256617 Q -1.1660368583194787 1.7427950446949712 -1.2251176350739876 1.7529426729312703 Q -1.2146648150110329 1.81380031515208 -1.2051598434586464 1.8478388080916388 Q -1.194829165756365 1.8840220849074099 -1.2179284168182782 1.887989578653933 Q -1.240139235147041 1.891804476487128 -1.2493577165299652 1.8407958922876375 Q -1.2520145736397936 1.827989915613619 -1.2533116389030798 1.8204382373818397 L -1.258971259069617 1.7848246300991555 L -1.2633202425994594 1.759504297204366 L -1.5225001354360086 1.8081365491519263 Q -1.5340497609669652 1.8101202960251879 -1.542853569796995 1.8054585893180404 Q -1.5516573786270245 1.8007968826108927 -1.552878145933647 1.7936894207456886 Q -1.5540989132402694 1.7865819588804845 -1.5537513518904704 1.7819490503230722 Q -1.5534037905406712 1.7773161417656598 -1.5509809575846196 1.7727841087698353 Q -1.544587320076207 1.7620822018518045 -1.5306640167990462 1.7606053979283742 Q -1.4791213469029085 1.7544964311114768 -1.3587387115610143 1.7338196848555592 M -1.282183196574095 2.085171327913236 L -1.076217474967005 2.020447587834128 Q -0.9316463228893641 1.9753482026263978 -0.8049257791915604 1.9244859348210468 Q -0.785966244406231 1.9171550247300326 -0.7760775381453481 1.9291787891906993 Q -0.7702193293645139 1.9358498774518176 -0.7687190298506004 1.9467132857574554 Q -0.7660935057012517 1.9657242502923213 -0.7580400440570141 1.991540527449043 Q -0.7499865824127766 2.0173568046057646 -0.7460802768495284 2.029122152788893 Q -0.7421739712862802 2.040887500972022 -0.7379854178996906 2.052800872617755 Q -0.727298898790244 2.082517189551718 -0.722585363733607 2.093086434261113 Q -0.71787182867697 2.1036556789705076 -0.717780884950798 2.1100012387737195 Q -0.717689941224626 2.116346798576931 -0.7197898679048159 2.121723306322283 Q -0.7248502638370866 2.1327447705344613 -0.7345313677708573 2.13576481865105 Q -0.7442124717046278 2.1387848667676392 -0.7530825794870794 2.133053349031682 Q -0.7619526872695311 2.1273218312957254 -0.7655353477038378 2.1135669492473403 Q -0.7691180081381443 2.0998120671989557 -0.7731428556312981 2.0831261974311888 Q -0.7771677031244518 2.066440327663422 -0.7826433037109473 2.0473741667210885 Q -0.7937011310409421 2.0073865353319036 -0.8040125752719103 1.98038607047435 L -0.8784495077404575 2.0036068848819015 Q -0.9223371789068843 2.0172977696771053 -0.9680801595778297 2.0310952806293128 Q -1.0899811578611036 2.0686505034320213 -1.1472072388918366 2.086502343410081 Q -1.1288185014708276 2.145449509584595 -1.114906831045756 2.177936875002435 Q -1.0998937675310523 2.2124413724892644 -1.1222678744002113 2.2194210392476035 Q -1.1437814386974792 2.226132257284468 -1.1596475114682132 2.1767852837614887 Q -1.16397028921554 2.1644416408298106 -1.166252103348074 2.15712702896874 L -1.176559780921112 2.1225711017323734 L -1.1842105694831375 2.0980456384334882 L -1.4347112525145373 2.180439331038312 Q -1.4458983059491168 2.183929164417482 -1.455240082323114 2.180469428370122 Q -1.4645818586971113 2.177009692322762 -1.466729448468908 2.1701253517476364 Q -1.4688770382407046 2.1632410111725107 -1.4691436036332142 2.158602737411214 Q -1.4694101690257235 2.153964463649917 -1.4676062892707418 2.149152451551248 Q -1.4626801176992084 2.137700716053124 -1.4490732591134277 2.134400303442159 Q -1.3987867150652875 2.1215461296730425 -1.282183196574095 2.085171327913236 M -0.7852661805768671 2.3041851326525946 Q -0.8077691951098789 2.314037548626548 -0.9656723845661568 2.384905059245378 Q -1.1235755740224345 2.4557725698642083 -1.2957124026735694 2.5389565875096753 Q -1.3086864509860228 2.5452734196171205 -1.319275697542856 2.5403922620288983 Q -1.3298649440996888 2.535511104440676 -1.3338327864911077 2.526670170656015 Q -1.3378006288825266 2.517829236871353 -1.3346776238912936 2.508276072065856 Q -1.3315546189000607 2.4987229072603583 -1.30980279371005 2.4899486776424764 Q -1.2880509685200392 2.4811744480245945 -1.249850894428333 2.465018186050585 Q -1.2116508203366267 2.4488619240765748 -1.1685162715744117 2.4304910523957264 Q -1.0830695864950666 2.394118410651836 -1.00966927577125 2.3611760912626143 Q -0.9362689650474334 2.3282337718733923 -0.8954462213089172 2.3096653632762525 Q -0.8546234775704009 2.2910969546791127 -0.8204512564946467 2.2747722742861587 Q -0.7445205515284716 2.2392122051625356 -0.7003530672974919 2.215437415593941 Q -0.6877481206028452 2.2082981710414114 -0.6786984374243415 2.211400123730276 Q -0.6696487542458381 2.214502076419141 -0.6654040856410645 2.2239598195376162 Q -0.6611594170362908 2.2334175626560913 -0.6638420973076337 2.244502224644939 Q -0.6665247775789768 2.255586886633786 -0.6820162340264 2.261798457229391 Q -0.6975076904738232 2.268010027824996 -0.712587940698704 2.2740370476116976 Q -0.7276681909235848 2.2800640673983996 -0.7452156784837202 2.2871983920385204 Q -0.7627631660438553 2.2943327166786416 -0.7852661805768671 2.3041851326525946 M -0.904202238006084 2.9107938824350006 Q -0.8917095875061505 2.9027214879501164 -0.8806699346804123 2.904442379928254 Q -0.869630281854674 2.906163271906392 -0.8643709945387645 2.9143024229896817 Q -0.859111707222855 2.922441574072972 -0.860943270063715 2.932479478550687 Q -0.8627748329045748 2.942517383028403 -0.8753781542672306 2.9495880291652643 Q -0.954294498080425 2.995215216466698 -1.0250751970348302 2.9878252807741936 Q -1.0929845980971384 2.980726515674881 -1.127964974198304 2.9265916968418355 Q -1.1940118381655398 2.8243791018423794 -1.0603963339938043 2.6956467757397116 Q -1.0113286646015751 2.6478417365504456 -0.934669218351983 2.598306588575019 Q -0.858009772102391 2.5487714405995923 -0.7918917428187071 2.519463614437294 Q -0.7257737135350231 2.490155788274996 -0.6690060702858921 2.480842304055758 Q -0.5477014150181414 2.4609514035488385 -0.4985331940647548 2.5370430020484336 Q -0.4603727837725742 2.596099168048119 -0.4885899481703163 2.6545795713552645 Q -0.518857161842602 2.7165311794466156 -0.6312910163420036 2.7891827298105754 Q -0.643783666841937 2.7972551242954595 -0.6536992623123058 2.7956128440379318 Q -0.6636148577826745 2.7939705637804044 -0.6687518360912373 2.7860206952804467 Q -0.6800042647671367 2.7686066976138726 -0.658047485100587 2.7544188527616518 Q -0.5179783734346658 2.6639101873250692 -0.5199651723353044 2.6018716186154043 Q -0.5207749997858138 2.5798564312481522 -0.5344736086086478 2.558656781914932 Q -0.5481722174314819 2.5374571325817112 -0.5709825218352775 2.5283164501279787 Q -0.5937928262390734 2.5191757676742457 -0.6232425144958862 2.5196915692398023 Q -0.6526922027526988 2.5202073708053594 -0.6873893232032167 2.5292119017481 Q -0.7220864436537346 2.53821643269084 -0.7589355013886547 2.553441157302537 Q -0.8333907471918244 2.584379842555318 -0.8983146732748122 2.626331832075248 Q -0.9632385993578 2.668283821595177 -0.9997292959459634 2.697766002949262 Q -1.0362199925341267 2.7272481843033467 -1.0591521719901094 2.7527989117166096 Q -1.0820843514460918 2.7783496391298725 -1.092960636291928 2.8001349188963967 Q -1.1038369211377639 2.8219201986629203 -1.105985786152825 2.8410175355595775 Q -1.1100797401632296 2.8737142315833912 -1.0887979728848982 2.906649401083216 Q -1.065070025459632 2.943370222249687 -1.0199970603821296 2.9475164394221114 Q -0.9676905151430233 2.9528914572515257 -0.904202238006084 2.9107938824350006 M -0.397637052876026 2.892641411252121 Q -0.41616480588265115 2.908771449445574 -0.5456554127129855 3.023609614027245 Q -0.6751460195433197 3.1384477786089158 -0.8145365386086365 3.2692948334646257 Q -0.8250283647908996 3.279201895635052 -0.8365926474092805 3.2777101820014503 Q -0.8481569300276615 3.2762184683678486 -0.854586671013354 3.2689683432458376 Q -0.8610164119990464 3.2617182181238267 -0.8608926375541052 3.251668302807614 Q -0.8607688631091639 3.2416183874914015 -0.8426355613270267 3.2267418162815416 Q -0.8245022595448893 3.2118652450716816 -0.7928803528845922 3.185026365051231 Q -0.7612584462242951 3.1581874850307803 -0.72558995810055 3.1277599123671527 Q -0.6549274120969679 3.0675028824804262 -0.5947345128281798 3.014121079413165 Q -0.5345416135593916 2.960739276345904 -0.5011382377851014 2.930814425618583 Q -0.4677348620108112 2.900889574891261 -0.44000690720720514 2.8750942961451127 Q -0.3781820676845563 2.8184579148100037 -0.34314365090978094 2.7825647868849828 Q -0.33324994016804743 2.771983294470648 -0.32368676883392133 2.772237519074877 Q -0.31412359749979535 2.7724917436791063 -0.3072452699337056 2.780247691484048 Q -0.30036694236761596 2.78800363928899 -0.29961262235260755 2.799383336392174 Q -0.29885830233759914 2.8107630334953577 -0.31178384843029405 2.821322346462223 Q -0.3247093945229891 2.8318816594290883 -0.33729772549373005 2.842141914675689 Q -0.349886056464471 2.8524021699222897 -0.364497678166936 2.864456771490479 Q -0.379109299869401 2.876511373058668 -0.397637052876026 2.892641411252121 M -0.45472009060506174 3.3217063395969024 L -0.5584486155336499 3.443538719641831 Q -0.5725662390430601 3.4599322942760216 -0.5825662223622257 3.471544409641907 Q -0.5866364469040374 3.4769615188715375 -0.5898717356249439 3.4807183797252064 Q -0.503805468795442 3.55483590314961 -0.47310530873891854 3.5765153646955996 Q -0.44108643311131224 3.598735644906049 -0.4374814424687907 3.6042194163158094 Q -0.43387645182626927 3.60970318772557 -0.4331081781854939 3.6157181545339414 Q -0.4315716309039432 3.6277480881506836 -0.43789514976753313 3.6350910434555814 Q -0.44421866863112314 3.6424339987604797 -0.4552666078487374 3.642139531263629 Q -0.46631454706635167 3.641845063766778 -0.4773384281193448 3.6311620148378547 Q -0.5295262850856982 3.5784868747172767 -0.5771086111595144 3.54256643890787 Q -0.6246909372333307 3.506646003098463 -0.6308907550025094 3.502793960607524 Q -0.6370905727716881 3.4989419181165844 -0.6406244399415602 3.4944116216488115 Q -0.6441583071114323 3.4898813251810386 -0.6452206979086537 3.484207891177546 Q -0.6480759607612874 3.4716371388963445 -0.6376870289888099 3.4609547906482305 Q -0.5475641787027181 3.3666635673848972 -0.4444761153683791 3.246956319274816 Q -0.34138805203404016 3.127249071164735 -0.31459968297323354 3.0964874109014104 Q -0.287811313912427 3.0657257506380864 -0.2657525271789735 3.040110790272163 Q -0.21908273060091815 2.984535774373756 -0.20123160372165094 2.960353257067074 Q -0.1833804768423838 2.936170739760392 -0.176995457771993 2.93393669197031 Q -0.17061043870160197 2.9317026441802287 -0.16508887490925706 2.9328887360718614 Q -0.15790706274095 2.9349097637843995 -0.15122827685451778 2.9430405896021745 Q -0.13894271914472311 2.957784239807061 -0.11537695560807382 2.978078323601838 Q -0.06995309255917004 3.0171959054091624 -0.05177110716208633 3.029582157069961 Q -0.03358912176500284 3.04196840873076 -0.030131189700704386 3.04762294654296 Q -0.026673257636405823 3.05327748435516 -0.025952399644063373 3.0586568012022064 Q -0.023827618049620636 3.070003669209191 -0.03059231264787965 3.0778589237214073 Q -0.037357007246138774 3.0857141782336237 -0.04791635508065095 3.0855430614907795 Q -0.05847570291516324 3.0853719447479353 -0.06862204413174244 3.0757420136907894 Q -0.07876838534832165 3.0661120826336434 -0.08998674062797063 3.0549641501458344 Q -0.10120509590761972 3.0438162176580255 -0.11427817378988658 3.031368465790426 Q -0.14208457793038254 3.0056380262343207 -0.1647301976151092 2.989110426559061 Q -0.19031839022591523 3.018823780583532 -0.21595399848515412 3.047901484646678 Q -0.24629548124752976 3.0824437135878875 -0.27751931547924347 3.1180105409437338 Q -0.36148495201166525 3.2134404404502668 -0.40089665097543536 3.2592058363040497 Q -0.3582050503655634 3.2959704808598054 -0.3362899119390275 3.311274196260848 Q -0.3123729923316507 3.3277069646392423 -0.31056122408494624 3.3369998241840286 Q -0.30874945583824176 3.346292683728815 -0.31522003328005477 3.3538064054361527 Q -0.33139647688458723 3.3725907097044963 -0.36598612147422965 3.3416135769807958 Q -0.3728641932202421 3.3350955838905496 -0.37867025090318474 3.330095592230967 L -0.4060402909419357 3.3059305697539583 L -0.4261907264297953 3.2885776575236414 L -0.45472009060506174 3.3217063395969024 M 0.38729276251110845 3.3424276276436866 Q 0.2740663016965492 3.5362548317916165 0.22809098463136812 3.617180875082658 Q 0.1821156675661868 3.6981069183736994 0.16082678100374392 3.73603597811277 Q 0.139537894441301 3.773965037851841 0.12056004194067277 3.8082824280861542 Q 0.08037792933335436 3.880836145275898 0.06632941217271449 3.907845570044945 Q 0.05228089501207467 3.934854994813992 0.04703520309152448 3.9386137679878055 Q 0.0417895111709744 3.942372541161619 0.03586680760440275 3.943673176604561 Q 0.011561458905398336 3.9490449712878353 0.00021357280645178944 3.9270466861366025 Q -0.004168824164282214 3.9183364283803517 -0.0019605952866259546 3.907149854164824 Q 0.02099407780395568 3.78644889982669 0.039748092545496494 3.6402936096977676 Q 0.05850210728703731 3.494138319568845 0.06712941242934539 3.4342422132851937 Q 0.0827903282690231 3.325467322021913 0.09900444966423139 3.2367051277928143 L -0.20648479364397315 3.78629113027635 Q -0.21338665722276548 3.798439834111809 -0.22299656738564383 3.8007559870237837 Q -0.2326064775485222 3.803072139935758 -0.24064029782680957 3.798508004343331 Q -0.248674118105097 3.7939438687509037 -0.2518586848170473 3.783581409850454 Q -0.2550432515289976 3.7732189509500045 -0.24730421275688125 3.7605091005309284 Q -0.18215906686905925 3.6549647483063055 -0.1037895191356753 3.517018175723029 L 0.02823645190380386 3.284625228160862 Q 0.06274576979776558 3.223881708983567 0.08689774764143732 3.1795443361858577 Q 0.09513545578386684 3.165044270317729 0.10829455823819839 3.1624117608251927 Q 0.12145366069252994 3.1597792513326564 0.1312510024953195 3.165345270347812 Q 0.153197048133568 3.1778131529417593 0.14845117391944762 3.2025910512545845 Q 0.1437052997053272 3.22736894956741 0.1367114428107541 3.2697905783214014 Q 0.129717585916181 3.3122122070753925 0.12140606318637637 3.364252835356465 Q 0.11309454045657186 3.4162934636375373 0.1042400498715561 3.4747645542196977 Q 0.09538555928654036 3.533235644801858 0.08675370946213079 3.5913148417119065 Q 0.07812185963772122 3.649394038621955 0.06998413450152352 3.7038661107093485 Q 0.06184640936532576 3.7583381827967415 0.05524899082496565 3.802799361684942 Q 0.04865157228460554 3.847260540573142 0.0437546238873856 3.8786915419476617 Q 0.04347859527767861 3.880089863724603 0.04342520742857775 3.881096291829432 Q 0.08392764713050116 3.8025040060107127 0.13339819446997647 3.7108633639499065 Q 0.19400077983976205 3.5996280382835213 0.22379885847224013 3.5439836815257784 Q 0.2535969371047182 3.4883393247680354 0.28417425839931787 3.4313233401579017 Q 0.31475157969391776 3.374307355547768 0.3441844585788346 3.3179371439770042 Q 0.3513089629182331 3.3053965464694337 0.36161803396958203 3.3032184078623126 Q 0.37192710502093085 3.301040269255192 0.38015687213527405 3.3057157252279223 Q 0.38838663924961725 3.3103911812006523 0.3914019530500621 3.3201391056683844 Q 0.39441726685050704 3.329887030136116 0.38729276251110845 3.3424276276436866 M 0.6183549313811308 3.974349219752276 Q 0.6228197488500078 3.960161363176926 0.6324166808702347 3.9544399735282143 Q 0.6420136128904618 3.948718583879502 0.651257216416826 3.951627480109225 Q 0.6605008199431901 3.9545363763389476 0.6654976369954834 3.963432778313323 Q 0.6704944540477766 3.9723291802876988 0.6653050639824809 3.9858165068171965 Q 0.6336756186956134 4.071310411469677 0.5744704565855687 4.110797969934804 Q 0.51766152216176 4.14867704315747 0.4561808103352448 4.129329500792337 Q 0.34009834744602035 4.09279917604698 0.3607936682937064 3.908416914335388 Q 0.36805494422104473 3.8402976672507396 0.395452687780062 3.7532358200838214 Q 0.4228504313390792 3.666173972916903 0.4550434611330406 3.6014117053268726 Q 0.4872364909270021 3.5366494377368425 0.5249929857512878 3.4932472096034126 Q 0.6056802807189343 3.4005108750661446 0.6920972253142458 3.4277056723765766 Q 0.7591670927613532 3.4488120822294492 0.7747706289576977 3.5118414055304727 Q 0.7910115253525387 3.5788513992096265 0.7508281681326467 3.7065421083877736 Q 0.7463633506637698 3.720729964963123 0.7376819162132633 3.725794430764945 Q 0.7290004817627569 3.7308588965667666 0.7199718457602616 3.7280176490865724 Q 0.7001948335643197 3.721793964129956 0.7080420885096185 3.6968577313611597 Q 0.7581021631606624 3.537781763698148 0.7169759499606321 3.4912912704200485 Q 0.7023011154320634 3.474860399266213 0.6782247527587428 3.467283739319028 Q 0.6541483900854221 3.4597070793718427 0.6307544092407955 3.467229294667555 Q 0.6073604283961688 3.4747515099632666 0.5850186580515557 3.4939451413952565 Q 0.5626768877069427 3.5131387728272454 0.5417135503347019 3.542216431455033 Q 0.520750212962461 3.57129409008282 0.502100369780707 3.6065336792511045 Q 0.4645300884190852 3.677872727683149 0.4413265673308311 3.7516065883701937 Q 0.418123046242577 3.8253404490572382 0.4088490406153069 3.8713269989877332 Q 0.3995750349880369 3.9173135489182282 0.3982293697621139 3.951619724908099 Q 0.396883704536191 3.98592590089797 0.40241558464283766 4.009638561841845 Q 0.40794746474948435 4.033351222785719 0.41848228885029837 4.049424286543519 Q 0.4361996690679458 4.077207893734384 0.4736040182211404 4.088978776152332 Q 0.5153077178517136 4.102102633560849 0.5526521932369546 4.0765262097310835 Q 0.5963495241359946 4.047278837818089 0.6183549313811308 3.974349219752276 M 1.071647273690304 4.081046193889805 L 1.0611596690781466 4.2118241440315325 Q 1.0590526203741355 4.231996853362975 1.0390273030293313 4.2371559701414325 Q 1.0339089030857336 4.238434043509914 1.0271846666419195 4.237731693941909 Q 1.0204604301981055 4.237029344373906 1.0136122134199201 4.22883668810864 Q 1.006763996641735 4.220644031843373 1.0097710712414396 4.204870475506614 Q 1.0127781458411445 4.189096919169855 1.01621009121817 4.173594327352424 Q 1.0196420365951957 4.158091735534992 1.0226725228471671 4.142094037983439 Q 1.0297436574351009 4.104766077029815 1.0319443527481789 4.083696802839198 Q 1.034145048061257 4.06262752864858 1.035288757985811 4.047339102738069 Q 1.036432467910365 4.032050676827557 1.0372215420143984 4.015818862753336 Q 1.0381311354162845 4.002771848990761 1.038920209520318 3.9865400349165405 Q 1.0280600469247476 3.947339141781574 1.0145769636719333 3.9028793787894083 Q 0.997520649525129 3.8449043689893334 0.9791394387053101 3.7822592416752476 Q 0.9032994872847772 3.5278115331550035 0.9054065359887882 3.5076388238235614 Q 0.9065771186021275 3.496431763083871 0.9140037046139452 3.490409876208061 Q 0.9214302906257629 3.4843879893322507 0.9320117510256052 3.485040054559202 Q 0.9425932114254474 3.4856921197861532 0.9476482984852822 3.4936974828332854 Q 0.952703385545117 3.501702845880417 0.9600141367006463 3.5423456939497324 Q 0.9673248878561754 3.5829885420190477 0.9832539816576552 3.6474168237436095 Q 0.9991830754591351 3.7118451054681714 1.0161457429968723 3.7707166801274217 Q 1.0383611739221343 3.848717007272301 1.0672141167551807 3.936927261615591 Q 1.0758581086848715 3.919250031570503 1.0856327819964051 3.899425035986544 Q 1.1021447202944639 3.8671617295989473 1.1196802570209057 3.831606539946244 Q 1.1372157937473477 3.796051350293541 1.1553869061215116 3.758749854227021 Q 1.1735580184956755 3.721448358160501 1.1904445432300028 3.6855987923362035 Q 1.2313294441214508 3.5978750904472703 1.2430073833396318 3.568505669236245 Q 1.2546853225578127 3.53913624802522 1.2617069884080576 3.5283137490296728 Q 1.2687286542583027 3.517491250034125 1.2803839974275804 3.518708655951998 Q 1.3019015540477854 3.52095617456961 1.2997008587347072 3.5420254487602274 Q 1.2980152197714985 3.558163616225381 1.2572538914127396 3.6381962818545244 Q 1.216492563053981 3.718228947483668 1.2045636099322208 3.743493591871604 Q 1.1926346568104607 3.768758236259541 1.181705890464817 3.7909551385971643 Q 1.1707771241191733 3.813152040934788 1.158175747353032 3.838346450365924 Q 1.1455743705868906 3.86354085979706 1.1321601002627668 3.8900098815601587 Q 1.1187458299386432 3.916478903323257 1.1067097938634234 3.940599429984958 Q 1.0931416172813062 3.9663726164514084 1.084049342922028 3.984003023191963 Q 1.0734733825671134 4.063563179135889 1.071647273690304 4.081046193889805 M 1.65804043947446 3.638272807618293 Q 1.661044530777073 3.662653767382878 1.6837850684158169 3.834230249599049 Q 1.7065256060545606 4.00580673181522 1.7369967147665955 4.194545122461031 Q 1.7393385733255953 4.208783942495611 1.7316324476397706 4.217534569270691 Q 1.723926321953946 4.22628519604577 1.7143198262048633 4.227558429272939 Q 1.7047133304557809 4.228831662500108 1.6964526012340415 4.223106588640204 Q 1.688191872012302 4.217381514780299 1.686006051718598 4.194028759179991 Q 1.683820231424894 4.170676003579683 1.6792656051271542 4.129450697748523 Q 1.6747109788294143 4.088225391917364 1.6694457107304639 4.041638321016949 Q 1.6590336148327645 3.949357806727662 1.6484628180397547 3.869601551322489 Q 1.637892021246745 3.7898452959173157 1.6317762094338202 3.745416937293124 Q 1.6256603976208954 3.700988578668932 1.6197922775008777 3.6635746634843467 Q 1.6074368883147974 3.5806449653611914 1.5972889416074278 3.5315223996713865 Q 1.5940534555368853 3.517402019937008 1.599614342669005 3.5096177145460907 Q 1.6051752298011246 3.501833409155173 1.6154519461838641 3.5004713457028522 Q 1.6257286625666034 3.4991092822505316 1.635582850008593 3.5048504924629684 Q 1.6454370374505825 3.5105917026754057 1.6469579623706585 3.527212641864094 Q 1.6484788872907348 3.543833581052783 1.64994059206071 3.5600077064857003 Q 1.6514022968306854 3.5761818319186176 1.6532193225012661 3.5950368398861627 Q 1.6550363481718466 3.613891847853708 1.65804043947446 3.638272807618293 M 1.9454032649067126 3.9789444013843536 Q 1.9605763631865376 3.9746275393546884 1.9678081677385202 3.9852224506486396 Q 1.9750399722905028 3.9958173619425907 1.9826869850287672 4.022695421752567 Q 1.9903339977670313 4.049573481562543 2.004364089777287 4.070886643065578 Q 2.018394181787543 4.092199804568614 2.0359632344587535 4.1045397695818595 Q 2.071534856894884 4.129096360693215 2.1183547030154877 4.11577575785882 Q 2.165174549136091 4.102455155024424 2.183114199380389 4.060096855506004 Q 2.2010538496246865 4.017738555987585 2.1826763512698255 3.953144509024901 Q 2.1581319071583 3.8668746073767517 2.0657499864757694 3.8205237345093384 Q 2.0395142537118582 3.807369250312528 2.0123180671288075 3.7949566304972597 Q 1.9851218805457564 3.7825440106819914 1.958639469951579 3.7685224922977625 Q 1.9321570593574013 3.754500973913533 1.9087764305489838 3.734910895440878 Q 1.8576238252097175 3.6918254228706986 1.8382596155337902 3.62376323915834 Q 1.8184020501973297 3.553966987071144 1.8473756215015162 3.499331597856261 Q 1.8760390146271269 3.4452530646502213 1.9375984419338461 3.4277389387012933 Q 1.9904875273663796 3.4126915910550313 2.0344156517166345 3.438619557358796 Q 2.0837254968918724 3.468639678550873 2.101165137148034 3.541466888512548 Q 2.1017183313753915 3.545058364177356 2.1030451401584456 3.548898348563173 Q 2.1043719489415 3.55273833294899 2.106371629085559 3.5638846075795554 Q 2.1083713092296184 3.575030882210121 2.1027563518410957 3.585766235467418 Q 2.097141394452573 3.596501588724715 2.087820776937823 3.599153375400081 Q 2.0785001594230734 3.601805162075447 2.069592294172335 3.595201662475115 Q 2.060684428921596 3.588598162874783 2.0589051691058775 3.5741089213004194 Q 2.055537150519368 3.5408587675629084 2.050911941201869 3.52460187654881 Q 2.0462867318843707 3.5083449855347117 2.036240728004763 3.495270479702895 Q 2.0261947241251557 3.482195973871079 2.0121499849889575 3.47400800231297 Q 1.9819564215963248 3.4568248635761565 1.9446739515373257 3.4674320102776197 Q 1.903489827634943 3.4791492072152828 1.8854958314960497 3.514728153214384 Q 1.8657641052008338 3.5540817523602506 1.8787146912898296 3.599601047199726 Q 1.8916652773788256 3.6451203420392018 1.909591530560237 3.670245399535385 Q 1.927517783741648 3.6953704570315686 1.9501882983426777 3.7132881365869537 Q 1.9728588129437075 3.731205816142338 1.9989712067924852 3.7439267832454393 Q 2.025083600641263 3.7566477503485407 2.0517229312154712 3.768750191985233 Q 2.078362261789679 3.780852633621925 2.104659664011157 3.7942238763655904 Q 2.1309570662326345 3.807595119109256 2.1540910172107854 3.8263181633944923 Q 2.2051202836349186 3.8689701188709624 2.224731171141112 3.9378993367707396 Q 2.247672209355905 4.018533516200668 2.219745187939609 4.078494449455195 Q 2.1921283447018887 4.13789852670088 2.1231991268021115 4.157509414207074 Q 2.0590385969331364 4.175763573646802 2.0046608708929767 4.137813144071339 Q 1.9533141027272964 4.102280639576175 1.936786688099435 4.044189349019129 Q 1.9202592734715735 3.9860980584620846 1.9454032649067126 3.9789444013843536 M 2.4178743601313935 3.2360398473192777 Q 2.428767911195925 3.2296680501561865 2.5561137889144874 3.15100429777538 Q 2.574010337091932 3.140536345293158 2.5885890252635475 3.1502846929890884 Q 2.592420888688156 3.1532649902031222 2.5953792230853057 3.1583227103402263 Q 2.598337557482455 3.1633804304773303 2.5955738430443756 3.1720461410779572 Q 2.5928101286062955 3.1807118516785837 2.576631293220264 3.189652927843663 Q 2.560452457834232 3.1985940040087417 2.545018696751709 3.206577114317669 Q 2.529584935669186 3.2145602246265956 2.516518543444449 3.221680787316506 Q 2.493109146761108 3.234328963405553 2.476996384348707 3.2442757145453522 Q 2.5262237035985198 3.335578968907745 2.5874384692010763 3.44023487020628 Q 2.6529769543071593 3.5522828240128903 2.677407067642927 3.5936034415054285 Q 2.7018371809786945 3.6349240589979663 2.724689017655442 3.672207303959873 Q 2.7822921015711657 3.768010349406821 2.8107669698841855 3.814014304273054 Q 2.8188932075488156 3.8270146235241604 2.816228602571181 3.8371888465868667 Q 2.8135639975935467 3.8473630696495733 2.805977417387891 3.8518005712452976 Q 2.798390837182235 3.856238072841022 2.787666067513601 3.8544176516273416 Q 2.7769412978449672 3.8525972304136613 2.769886808128687 3.840536513163644 L 2.7396868445776335 3.789797820581839 L 2.5262536024309568 3.415974276358319 Q 2.4654939651971923 3.3120964858501076 2.4361455678567134 3.268169953906945 Q 2.41529806772874 3.2798418002847773 2.388034844803906 3.2983992627215035 Q 2.355941465926364 3.320304114950541 2.341531743673624 3.3300379745376962 Q 2.327122021420883 3.3397718341248517 2.3174836723323518 3.3375770301477616 Q 2.3078453232438205 3.335382226170672 2.303407821648096 3.327795645965016 Q 2.298970320052372 3.3202090657593604 2.300871486871435 3.3091759863009473 Q 2.302772653690498 3.2981429068425343 2.316925466495338 3.290647961389215 Q 2.3310782793001774 3.2831530159358953 2.3414212837587813 3.277625402536758 Q 2.3517642882173853 3.2720977891376206 2.3595784326074374 3.2680493429370583 Q 2.3673925769974895 3.264000896736496 2.373455972109313 3.260976489365716 Q 2.3795193672211368 3.2579520819949357 2.3856635079383435 3.254619364834377 Q 2.39180764865555 3.251286647673818 2.399588756558787 3.2467353639858954 L 2.4178743601313935 3.2360398473192777 M 2.997796475412886 3.08990339159489 L 2.9508293240171555 3.0363710143047644 Q 2.939615362605461 3.02342516431466 2.9266079877000997 3.008753125002458 Q 2.913600612794738 2.9940810856902558 2.898527508155643 2.9770242845377712 Q 2.883454403516548 2.9599674833852867 2.869096271489033 2.9440802751453328 Q 2.8547381394615177 2.9281930669053784 2.85644382047853 2.9177709865037453 Q 2.858149501495542 2.9073489061021123 2.8649631067534918 2.901446821148589 Q 2.871776712011441 2.895544736195066 2.881824500064392 2.8957857200518715 Q 2.8918722881173426 2.896026703908677 2.9009749437800827 2.9072235765690726 Q 3.059306917033992 3.1010227904399916 3.1522647550519833 3.2083370732526975 Q 3.3018826086237967 3.381061966541719 3.3393847759375426 3.419537188092786 Q 3.3495094723889745 3.429848748010153 3.348609916013985 3.4401688523031693 Q 3.3477103596389948 3.4504889565961854 3.341067094512494 3.4562434894258707 Q 3.3344238293859934 3.461998022255556 3.3245691694721016 3.4612915940196256 Q 3.3147145095582102 3.4605851657836952 3.3056118538954706 3.4493882931232998 Q 3.209885277461604 3.3361240696393244 3.1409220355358247 3.255133319100167 Q 3.1082406581565394 3.278672155040166 3.055775897670328 3.3241182091822945 Q 3.001267055606731 3.3713348888104804 2.977690613592711 3.397124038247622 Q 3.067152776653809 3.4997143733949843 3.1447435456362913 3.585157895210682 Q 3.154822666072502 3.5961052396386224 3.1537071935508423 3.6072086805660506 Q 3.1525917210291823 3.618312121493479 3.145607775639784 3.62436175857084 Q 3.1386238302503857 3.6304113956482014 3.1285988302050454 3.629852519536109 Q 3.1185738301597055 3.629293643424017 3.103024457063311 3.609966020469303 Q 3.0874750839669174 3.5906383975145895 3.057760706982068 3.5549581219407966 Q 3.0280463299972182 3.5192778463670042 2.9944955977925787 3.4791687273755443 Q 2.937631630021522 3.4121458676151835 2.877430363495585 3.3426470939840978 Q 2.817229096969648 3.2731483203530125 2.79241755215724 3.244849070524911 Q 2.7676060073448316 3.2165498206968097 2.746903133992279 3.1933379868045595 Q 2.7140098344545613 3.1574298311546602 2.669038908918469 3.1117091720523042 Q 2.658914212467037 3.101397612134937 2.660472341360211 3.0908051916018553 Q 2.6620304702533852 3.0802127710687732 2.6695254360371297 3.0737204776198976 Q 2.677020401820874 3.067228184171022 2.6877267623920096 3.067196851787762 Q 2.6984331229631446 3.067165519404502 2.711474109954291 3.083597360124587 Q 2.7245150969454377 3.1000292008446726 2.7433106167662693 3.1231043066912583 Q 2.762106136587101 3.146179412537844 2.785226244014458 3.17355859768587 Q 2.8083463514418154 3.2009377828338956 2.836971463466403 3.233983768334951 Q 2.8634852697420365 3.2652807765062977 2.9496557100634755 3.3647594132723615 Q 2.975091649891471 3.3486893355547096 3.034029335372735 3.297636300706734 Q 3.090582259013716 3.2486489955924913 3.113182236254265 3.2231093743878043 Q 3.101968274842571 3.2101635243977 3.0916396261739054 3.198239715196288 L 2.997796475412886 3.08990339159489 M 3.391215815553668 3.0373811019311074 L 3.5170794436123893 3.1361792944407307 Q 3.5340218266800933 3.149633373332554 3.5460226813530507 3.1591633458809287 Q 3.5515974693719543 3.1630147792207133 3.55548009882497 3.166098005633423 Q 3.6261140130070433 3.077150494527976 3.646554627246204 3.0456119439914335 Q 3.6674831551021927 3.0127342012029135 3.6728191267012833 3.008913846049152 Q 3.678155098300374 3.00509349089539 3.6841347282280315 3.004086467548502 Q 3.696093988083347 3.002072420854726 3.703682763832423 3.0080987270250215 Q 3.7112715395814986 3.0141250331953175 3.711416944552431 3.025175939468435 Q 3.7115623495233643 3.0362268457415524 3.7013264443471683 3.047667113794017 Q 3.650769779385935 3.1019097762421373 3.6167712761016597 3.1508838228154175 Q 3.5827727728173846 3.1998578693886977 3.5791704956382198 3.2062060636868814 Q 3.575568218459055 3.212554257985065 3.5711821362961995 3.216265603633331 Q 3.566796054133344 3.2199769492815964 3.561169390519597 3.2212642659387307 Q 3.548722217047453 3.2246175048844847 3.537634915308899 3.214661893018535 Q 3.4398320502424586 3.1283626316486908 3.3161173572168274 3.030119826407355 Q 3.1924026641911962 2.9318770211660192 3.160599359437419 2.906333993431772 Q 3.1287960546836415 2.8807909656975244 3.102323581140354 2.8597689674290505 Q 3.04493541798027 2.815347677107214 3.02006169155399 2.7984730035453858 Q 2.99518796512771 2.781598329983558 2.992701602873721 2.775307269596027 Q 2.9902152406197318 2.769016209208496 2.9911806691489784 2.7634518198940023 Q 2.9929143046052995 2.756195272013621 3.000772915996607 2.7491982200346645 Q 3.015015999224326 2.7363356880221477 3.034356237631322 2.711981012362323 Q 3.0716352478940827 2.6650364926122263 3.083288158714522 2.6463760131812117 Q 3.0949410695349604 2.6277155337501976 3.100453524291006 2.624035325251559 Q 3.105965979047052 2.6203551167529207 3.111312349350553 2.6194207664096965 Q 3.1225656765780476 2.616846133095428 3.130683901797989 2.623292879231093 Q 3.1388021270179305 2.629739625366758 3.1390513421421544 2.6402974186708423 Q 3.1393005572663784 2.6508552119749265 3.1300820151778765 2.661376727740782 Q 3.1208634730893747 2.6718982435066385 3.1101707914459773 2.68355133121789 Q 3.09947810980258 2.695204418929142 3.0875604447649057 2.7087624848650695 Q 3.062956907762483 2.737570775302813 3.0473435540967637 2.7608561533164955 Q 3.0780516234069775 2.7852416713079258 3.1081264330930347 2.80969986230302 Q 3.1438487038016594 2.838642746262055 3.180629873452016 2.868426510151829 Q 3.279325494044039 2.9485281225830233 3.3266229801080462 2.9860874261560304 Q 3.3616596438888364 2.9419666369172175 3.376079151309906 2.9194598645350203 Q 3.3915471589682973 2.894907967273024 3.400760560668198 2.8927278361267024 Q 3.409973962368099 2.8905477049803814 3.41773922127413 2.8967141578058007 Q 3.437152368539208 2.9121302898693484 3.4075762249560158 2.9479252335816373 Q 3.4013370991269323 2.9550572328635116 3.396572112852745 2.96105766019999 L 3.373515388408882 2.9893676383164944 L 3.3569780831043494 3.0101926508372143 L 3.391215815553668 3.0373811019311074 M 3.419585699020865 2.066783121180534 Q 3.426560408657119 2.0688257446667135 3.445618745487898 2.0888831154105114 Q 3.464677082318677 2.1089404861543093 3.5098730201409856 2.1678471379389794 Q 3.5515965625441535 2.2222999205359137 3.6073890381433125 2.294154679471454 Q 3.6900992010557108 2.3005518191117473 3.7796346408829073 2.302539967761264 Q 3.8758558440799686 2.3049715356210907 3.916687830376869 2.305978049233603 Q 4.014328886330371 2.3085341712393777 4.036550833960859 2.308838157538958 Q 4.058772781591347 2.309142143838539 4.064823334943719 2.312749093214353 Q 4.070873888296091 2.3163560425901673 4.074401081088712 2.321816264122006 Q 4.081276115154526 2.3331502075980213 4.077151030207673 2.34266071708178 Q 4.069618266391683 2.3600277343999485 4.049795125174998 2.359290328700783 Q 3.75811749877397 2.3374234351190557 3.6369865952662286 2.333522096083364 Q 3.707854356405481 2.4227240339840304 3.7486661818125206 2.4826768760872975 Q 3.871062303864373 2.53576492583809 3.9474502853998192 2.566932252244129 Q 3.9608616501140426 2.572258000453499 3.964573154014353 2.582956733912022 Q 3.968284657914663 2.593655467370545 3.9643389244872393 2.6027524764419665 Q 3.9603931910598154 2.6118494855133876 3.951052033284759 2.6163954699378658 Q 3.941710875509703 2.620941454362344 3.9191203056638373 2.6101604442093955 Q 3.8965297358179716 2.5993794340564476 3.8540637474931736 2.5794863747988868 Q 3.811597759168375 2.559593315541326 3.7633427650708544 2.5371893350117682 Q 3.6668327768758124 2.492381373952653 3.5901284503872364 2.459111667098693 Q 3.51342412389866 2.4258419602447336 3.478717487949064 2.4112796087848034 Q 3.4440108519994674 2.396717257324873 3.4151206205093345 2.3851690033089916 Q 3.365844314668724 2.3662523775975606 3.3076901892506148 2.3474154278351183 Q 3.2939201214975347 2.3429166804504233 3.291008219735159 2.3320734738587054 Q 3.288096317972783 2.321230267266988 3.292490430198778 2.311099507164723 Q 3.2968845424247726 2.3009687470624582 3.3069705049642826 2.2952719371606825 Q 3.3170564675037926 2.2895751272589067 3.330109129179159 2.295727876292951 Q 3.4344058684361434 2.3463697213217487 3.689535622848281 2.4570296088090426 Q 3.5612812220564667 2.281525276116537 3.4388555037434596 2.1537479634081977 Q 3.414877520050359 2.1286089931586645 3.4013789996876542 2.1161217040941187 Q 3.3878804793249495 2.103634415029573 3.3863460722332874 2.095845143856398 Q 3.384811665141625 2.0880558726832232 3.38750193793305 2.081853366498163 Q 3.3901922107244755 2.075650860313103 3.395121857397523 2.0716478900351705 Q 3.4000515040705697 2.067644919757238 3.40633124672759 2.0661927087257967 Q 3.4126109893846106 2.0647404976943555 3.419585699020865 2.066783121180534 M 3.9239545297299245 1.9883869773676623 L 4.0800388702220145 2.023606494178972 Q 4.101115734184843 2.0284873125870524 4.116045179491846 2.0319445589594425 Q 4.122733383197065 2.0330307133794085 4.127563497855213 2.0341492342645937 Q 4.153187794497635 1.9234956984597438 4.158114732334469 1.8862368181226727 Q 4.16290761998925 1.8475589500710898 4.166087597355175 1.8418182662826048 Q 4.169267574721101 1.83607758249412 4.174236323882481 1.8326017226200457 Q 4.184173822205242 1.8256500028718974 4.19361450085526 1.82783620278385 Q 4.203055179505276 1.8300224026958025 4.207929259540075 1.8399414256253648 Q 4.212803339574873 1.849860448554927 4.2084678905373645 1.8645865264282606 Q 4.186083443653158 1.9352772566490697 4.176393554357688 1.9941029441399458 Q 4.166703665062218 2.052928631630822 4.166174478924255 2.0602084622438523 Q 4.165645292786292 2.0674882928568827 4.163276492994457 2.0727228502217816 Q 4.160907693202622 2.077957407586681 4.156378045373801 2.08153495117759 Q 4.146574597233093 2.0899056586402502 4.132287620692319 2.085671893319577 Q 4.006912591335314 2.049698779165876 3.8530075742734096 2.014058636415206 Q 3.6991025572115053 1.9784184936645364 3.65941472847334 1.9689965666246887 Q 3.6197268997351744 1.959574639584841 3.5867942997932545 1.9519483608222155 Q 3.5158956178175975 1.9364554850768974 3.4861869606182534 1.9318890245701639 Q 3.4564783034189097 1.9273225640634306 3.4515326139719065 1.9227074157503836 Q 3.446586924524903 1.9180922674373366 3.4450708374147343 1.9126520504781783 Q 3.4435223838393467 1.9053537444719493 3.4476175146567876 1.895661148690434 Q 3.4549619400917706 1.877930678740804 3.461978116553386 1.8476326867942379 Q 3.475502050892442 1.7892322095639006 3.4780186538298654 1.7673765344922 Q 3.4805352567672894 1.7455208594204994 3.4839347847994944 1.739831017490432 Q 3.4873343128317 1.7341411755603646 3.4917622769436862 1.7310027333020144 Q 3.500821572601329 1.7238476461201957 3.5109209032501845 1.726186371607401 Q 3.52102023389904 1.728525097094606 3.525776446984394 1.7379541768331919 Q 3.5305326600697478 1.7473832565717777 3.526721812849024 1.760842872305852 Q 3.5229109656283004 1.7743024880399263 3.518254282207678 1.7894168253874012 Q 3.5135975987870554 1.8045311627348761 3.508652047448537 1.8218918486035633 Q 3.49879331123672 1.8584713093880083 3.494684427455744 1.8862040105908369 Q 3.5328862433883708 1.8950504939554824 3.5705472742716036 1.904234394935852 Q 3.615233926475779 1.9150452353855816 3.6612378826776317 1.9261611269858163 Q 3.7847594073087443 1.956153239130965 3.843598985871641 1.969778857186856 Q 3.8563094504760165 1.91489119061699 3.8596741817739284 1.888374109695003 Q 3.8631082303234563 1.8595598383933867 3.8704943289745 1.8536365547250195 Q 3.8778804276255436 1.8477132710566524 3.88754065694184 1.8499503128270225 Q 3.9116912302325813 1.8555429172529478 3.9003396047334578 1.9005669870728474 Q 3.8977651453473636 1.90968643133975 3.8960365221611686 1.9171511539932518 L 3.887361039764974 1.9526166782136898 L 3.8813617004717087 1.9785236568346667 L 3.9239545297299245 1.9883869773676623 M 4.0916747579371275 1.4266902264621044 L 4.222845872568731 1.4293361251895405 Q 4.243108498415559 1.4302327019031569 4.249456258745863 1.4499135494327449 Q 4.251038217846697 1.4549463314587352 4.250739358942159 1.4617005400743444 Q 4.2504405000376195 1.4684547486899537 4.242672163801973 1.475780773659318 Q 4.234903827566325 1.4831067986286826 4.2189786389569575 1.481048657498152 Q 4.20305345034759 1.4789905163676216 4.187373325952379 1.4764920566262019 Q 4.171693201557168 1.4739935968847822 4.155542872660614 1.471925493790767 Q 4.117858771901987 1.4670999199047319 4.096695584906412 1.4661634953371767 Q 4.075532397910836 1.4652270707696218 4.060202934455153 1.464999937827041 Q 4.044873470999469 1.4647728048844602 4.028623522468068 1.464956104662315 Q 4.015545461884255 1.4648285913545804 3.999295513352854 1.465011891132435 Q 3.960814455515457 1.4781975402213579 3.9172408438711614 1.4943159901342364 Q 3.86038993237336 1.51480973248312 3.798956519423942 1.5369053578598066 Q 3.5495010794694624 1.6278301513970435 3.529238453622635 1.626933574683427 Q 3.5179814392632864 1.6264354765091955 3.511526089552216 1.6193824089890476 Q 3.5050707398411456 1.6123293414688995 3.505088671550549 1.6017278240441424 Q 3.5051066032599527 1.5911263066193855 3.512795243787723 1.5856014039475168 Q 3.5204838843154937 1.5800765012756484 3.5606166349981168 1.5703476522024071 Q 3.60074938568074 1.5606188031291661 3.664109441579995 1.5408642382957107 Q 3.7274694974792495 1.5211096734622553 3.785220970125799 1.5006557789673103 Q 3.8617527291531886 1.4738142762881214 3.948079087000908 1.4397364063109301 Q 3.929916442356115 1.4321653166895814 3.909542242693391 1.4235940462846384 Q 3.8763489934974533 1.4090416151050997 3.8398085258841648 1.3936643336117307 Q 3.803268058270876 1.3782870521183617 3.7649463922870616 1.3623797943427416 Q 3.7266247263032466 1.3464725365671217 3.6898292325123174 1.3317607139718288 Q 3.599816950802254 1.2961965165908937 3.5698015666444283 1.2862963206073639 Q 3.539786182486603 1.276396124623834 3.5285630388906677 1.2700344170192568 Q 3.5173398952947323 1.2636727094146794 3.517857917395933 1.2519654144809567 Q 3.518814265890457 1.2303519469110071 3.5399774528860326 1.2312883714785623 Q 3.5561875535634946 1.2320056328494555 3.6385151796187474 1.2679065443334743 Q 3.7208428056739997 1.3038074558174932 3.7467757787720055 1.3142037573198606 Q 3.772708751870012 1.3246000588222282 3.7955196468378545 1.3341814719742497 Q 3.8183305418056968 1.3437628851262715 3.844233629013249 1.3548346074901998 Q 3.8701367162208014 1.365906329854128 3.8973607592610215 1.3777132448605252 Q 3.9245848023012417 1.3895201598669222 3.9493821119998285 1.4000917918390534 Q 3.9759207722150034 1.4120939612421834 3.994063492932827 1.4201153314379062 Q 4.074113815536544 1.4259131933103035 4.0916747579371275 1.4266902264621044" fill="#4e888f" fill-rule="nonzero"></path></g><g clip-path="url(#SvgjsClipPath1005)"><g clip-path="url(#a3e8ef9d9-591f-4815-8b3b-07a222d580ba7636189e-78f3-434d-8203-2700c85a9bb4)"><path d=" M 1.5377087271072405 1.6857913845019956 C 1.4651264420783372 1.712341869286068 1.3939004511637907 1.719657637539264 1.3241951536501892 1.733384977969419 C 1.1248199188397647 1.772635307642467 0.9250336858128686 1.8097895464115092 0.725411852072561 1.8477246817918476 C 0.7190413797172494 1.8489165766196156 0.7125887077186437 1.8496563734092648 0.7063004350066266 1.851135966988563 C 0.6695571944540561 1.8597669295344688 0.641075018052567 1.8510948671669156 0.6141546348736701 1.8216673948675415 C 0.5325714889040366 1.7323985822498869 0.44852235363557263 1.6453491600011796 0.36439101872381446 1.5583819373957668 C 0.3434712095054048 1.536763431209355 0.3336894519533782 1.5138708305518809 0.33397715070490835 1.4835802619979161 C 0.3350457460677347 1.358513504725576 0.33438814892138014 1.2334056476315889 0.33442924874302715 1.1083388903592486 C 0.33442924874302715 1.1018862183606428 0.3347580473162045 1.095433546362037 0.33484024695949893 1.0889397745417841 C 0.3350868458893819 1.0660060740626631 0.3477866907783578 1.0531007300654514 0.3691585980348865 1.0482509511110853 C 0.39653499323242297 1.0419907015496366 0.42402149662188104 1.0362220983956179 0.451604840259106 1.0309479261976275 C 0.7808555114745942 0.9686405965805159 1.1101472825117251 0.9065798658932883 1.4393568539055615 0.8441903366328833 C 1.4945539143777116 0.833750981934502 1.5497920746715088 0.8231472279495321 1.6047014363921288 0.8111871798502054 C 1.6328137143987935 0.805063306424777 1.653897922903792 0.8111049802069111 1.6740779353325528 0.8327645862149698 C 1.7506058032395844 0.9150053293309582 1.8286543645475613 0.9958075786892956 1.9058809294225947 1.0773907246589292 C 1.913196697675791 1.0851174911285972 1.9248690470235876 1.0952280472538012 1.92396485094735 1.1030781131884109 C 1.9185396744899232 1.151986900948544 1.9523237278838974 1.1445889330520531 1.981586800896683 1.1463973252045285 C 2.0484973105382767 1.1505484071908927 2.1153256205365762 1.1559735836483194 2.1810853351720487 1.170070822473299 C 2.2150337878526116 1.177345490904848 2.248160244100231 1.1871272484568747 2.278985110335609 1.2033616780075072 C 2.3123992653347587 1.220911301850849 2.329743390069865 1.2467630896669193 2.3293323918533932 1.2863833177347919 C 2.3279486989621967 1.4071304774583637 2.3279212973527037 1.5278893704914545 2.3292501922100994 1.6486371457330093 C 2.3297433900698654 1.6912165609594219 2.3105908731822837 1.7185479423547905 2.2739709320946546 1.7349467711920115 C 2.2503878713979533 1.7456622629766387 2.22592515718951 1.7543252814990216 2.200854349384338 1.7608396588297293 C 2.1400596747348772 1.7766117074516374 2.0776638794330315 1.7853953807350134 2.014877656430892 1.7870202452189765 C 1.9218276602216973 1.789034136479688 1.8286543645475615 1.7918289243516956 1.7364674645929576 1.7747313985464725 C 1.7067522935420534 1.7692240224457518 1.6768316233829132 1.7640043450965612 1.6477329496567166 1.75603097969701 C 1.6054001333601304 1.7444819298141552 1.5659443045788468 1.727096705257402 1.5377087271072405 1.6857913845019956 M 1.5376676272855934 1.2434340041134984 C 1.5728490746155714 1.2056221681981016 1.6178944791408703 1.185483255590988 1.6670909656525337 1.1745507030328406 C 1.7029300101288662 1.1665773376332895 1.7393033522866124 1.1611521611758628 1.7756766944443583 1.1563023822214968 C 1.80761125586421 1.151986900948544 1.8400801149654746 1.1512882039805419 1.8709049812008525 1.141670845715104 C 1.8703706835194394 1.135670271754617 1.8716036781688545 1.130080696010602 1.86934318797826 1.1276969063550661 C 1.7926098209629924 1.045784961812255 1.7155065555529005 0.9642018158426214 1.6384854897861028 0.8825364702296935 C 1.6266076413300705 0.8699599248056593 1.6123871030401495 0.870124324092248 1.5966458713492833 0.8732068107157859 C 1.5033081763885587 0.8914962313487768 1.40988828178454 0.9092102544787073 1.3165094870021683 0.9272119763601679 C 1.278327752691947 0.9345688444350114 1.2401460183817254 0.9419668123315024 1.2020875835364455 0.9498579780877588 C 1.1950595140347795 0.9512964718454099 1.1922236263411246 0.9582423417037816 1.1937032199204227 0.9645306144157987 C 1.1943608170667774 0.9672021028228649 1.2008545888870303 0.9706955876628742 1.204142574618804 0.9702023898031084 C 1.2319260540522914 0.9661746072816857 1.259586234020837 0.9618180261870856 1.2871642143460886 0.9565983488378949 C 1.3402240840925859 0.9465699923559853 1.3931606543741415 0.9356785396194851 1.4462205241206387 0.9255268836726339 C 1.478812682686845 0.9193208106039111 1.5089799517758682 0.9192386109606169 1.5376265274639462 0.9429943078726815 C 1.563149516706839 0.9641607160209743 1.5971801690306964 0.9708599869494632 1.6297312277752554 0.9677364005042782 C 1.6724339424666659 0.9636675181612083 1.6982035306394416 0.9887384093659823 1.7249595145317498 1.013727100927462 C 1.7340836749374215 1.0222758638300735 1.7319464842117687 1.0404008851764759 1.7218359280865647 1.0485386498626155 C 1.7150841923395155 1.0538227433114353 1.7076801440580918 1.0582154435978024 1.6998064236836814 1.0616083931464158 C 1.6828321973434 1.0692118601511422 1.680160708936334 1.0794046159196407 1.6853392864638772 1.0976529367309842 C 1.6942990475829605 1.1294230988642473 1.6867777802215282 1.1407666496388664 1.6555419157696785 1.148164617535357 C 1.6261144434703045 1.1551515872153761 1.596152673489517 1.1595903679532704 1.5664375024386128 1.1653443429838743 C 1.5197481050474269 1.174386303746252 1.4730998074778883 1.1834282645086294 1.4264515099083497 1.1927990238441841 C 1.4203276364829214 1.1940320184935993 1.4126830696565478 1.197525503333609 1.4160943548532627 1.2049234712300996 C 1.41802604647068 1.209074553216464 1.4261638111568196 1.212732437343062 1.431342388684363 1.212485838413179 C 1.4464260232288746 1.2118693410884713 1.461674057059975 1.210307547865879 1.476387793209662 1.2070195621341053 C 1.5101718466036365 1.199457194951026 1.5304340586756913 1.2126502376997677 1.5395171192597161 1.2451190968010324 C 1.5122864368947533 1.2583217940049167 1.483121836933 1.267090598560496 1.4531252941573634 1.2710941840820442 C 1.4413707451662727 1.272697077126284 1.4328219822636612 1.2807526421691293 1.4320410856523649 1.2923016920519843 C 1.4310749294743388 1.3094182975349848 1.4314872575127546 1.3265848882010263 1.4332740803017803 1.3436353692893006 C 1.4340087855154378 1.3504094641050934 1.4400044869124595 1.3553663965670688 1.4467959216236992 1.354814520777331 C 1.4597423654425579 1.3541980234526234 1.4726477094397696 1.3525951304083836 1.485511953615334 1.3529650288032082 C 1.5001434901217265 1.3533349271980326 1.509637548922223 1.361349392419231 1.5120213385777588 1.3761453282122125 C 1.5144051282332947 1.390776864718605 1.5079113564130417 1.4020382158499296 1.4947183136643003 1.4072167933774733 C 1.4828404652082678 1.4118610732236037 1.4695652228162317 1.4131351676946657 1.4570297772138445 1.4163820536047922 C 1.4408364474848594 1.420656435056098 1.4302737933215366 1.4301915936782417 1.4306847915380083 1.448152215738055 C 1.431054689932833 1.4650853422566894 1.4248486168641101 1.4845255578958012 1.4381238592561463 1.4977186006445429 C 1.4502894064637086 1.5098430480304583 1.4668115347658714 1.4982939981476033 1.481443071272264 1.4983350979692502 C 1.485722010904083 1.4984207473189983 1.489957450831099 1.4992122885512604 1.493978516874651 1.5006777878031392 C 1.504609700728605 1.503878909841102 1.5120168042107363 1.5135015308826205 1.5123912369725834 1.5245978840017924 C 1.513254333227174 1.5363524329928833 1.5087744526676323 1.5465040889397343 1.4980884990393681 1.5511072689642176 C 1.4862928502266302 1.5561625470268194 1.4732231069428299 1.558217538109178 1.4608931604486786 1.5622042208089537 C 1.4331507808368387 1.5711639819280367 1.4309313904678913 1.574369768016516 1.4303148931431837 1.602975243882947 C 1.4293284974236518 1.6441572651734118 1.434918073167667 1.6513908337833139 1.472771008904711 1.6423488730209361 C 1.4940196166962982 1.6373346947799814 1.5151449250229438 1.6454724594661212 1.5398048180112462 1.6373757946016285 C 1.5386129231834784 1.505938564973977 1.5422297074884295 1.3747068344545612 1.5376676272855934 1.2434340041134984 M 1.3703091535383147 1.457070877035491 L 1.3706379521114922 1.457070877035491 C 1.3706379521114922 1.4054084012249977 1.369404957462077 1.3536637257712099 1.371090050149611 1.302083449604011 C 1.372076445869143 1.2719161805149877 1.3622535884954692 1.2487358811059834 1.3416625778502367 1.22699407545463 C 1.2809581412773658 1.1627550542201024 1.2216510986404987 1.0971597388712182 1.1616453590356297 1.0321809208470416 C 1.0891041738283735 0.9536391616792985 1.1152847602176212 0.9674487017527479 1.012822904851225 0.9847928264878539 C 1.0107268139472192 0.9851627248826784 1.0085485233999192 0.9854504236342086 1.0064524324959137 0.9859847213156219 C 0.9896015056205736 0.9900125038370445 0.9842996286280886 1.0011094556817806 0.9941635858234096 1.013480501997579 C 1.0049317390949681 1.026961243497851 1.0164807889778231 1.0397843878517683 1.0281531383256197 1.0524842327407438 C 1.0864737852429547 1.116065656828917 1.1441779348355823 1.18022247842015 1.203649376759038 1.2426531075022023 C 1.2259665799134516 1.2660389060194424 1.2366936333633631 1.2902056011479786 1.2359949363953613 1.323085458465715 C 1.2341043445995914 1.4135050660894903 1.2354606387139482 1.5039246737132657 1.2354195388923008 1.594344281337041 C 1.2353784390706537 1.709053883554294 1.2291312661802838 1.6856269852154069 1.3352510056732783 1.6695980547730103 C 1.3373881963989311 1.669269256199833 1.3394020876596424 1.6682828604803008 1.341457078742001 1.6676663631555932 C 1.364555178507711 1.66059719383228 1.3697748558569016 1.655541915769678 1.3700625546084317 1.631457420284436 C 1.3707612515764338 1.5733422724753368 1.3703091535383147 1.5151860248445905 1.3703091535383147 1.4570708770354914 M 1.9294722270480706 1.328140736528317 C 2.0180834425193703 1.3279763372417284 2.1066124583473758 1.3257569468727814 2.1925521854116097 1.30064495584636 C 2.2164311817886158 1.2936579861663409 2.244913358190105 1.2935757865230466 2.256996705754373 1.2649292108349688 C 2.241995270853156 1.243310704648557 2.21622568268038 1.2426942073238494 2.1948126756022037 1.2337344462047664 C 2.1889765009283058 1.231268456905936 2.1821950303565227 1.231021857976053 2.1758656578228583 1.2296244640400493 C 2.058977765058305 1.2034849774724488 1.940610278714454 1.1985940986964354 1.8217906943324835 1.2097321503628187 C 1.7639632452749148 1.215116226998598 1.7056836981792267 1.2206236030993187 1.6504044380637823 1.24137901303114 C 1.6349920049460933 1.247174087883391 1.6131679996514456 1.2494756778956326 1.6131679996514456 1.268874793713097 C 1.6131268998297985 1.2856435209451427 1.6344988070863276 1.288356109173856 1.648185047694835 1.2927537900901032 C 1.6728808009370535 1.300393844030523 1.6979416129663922 1.3067996454633097 1.7232744218442173 1.3119474067993324 C 1.7912124270269887 1.326455643840783 1.8603423270375299 1.3276886384901982 1.9294722270480706 1.328140736528317 M 1.1759069971471978 1.3687062604940745 C 1.1762357957203753 1.3328261161960946 1.1704818206897711 1.3265378434840776 1.13447837692685 1.3325795172662114 C 1.0727464448127997 1.3428544726780043 1.0113022114502797 1.355143319350508 0.9497757784444653 1.3666101695900688 C 0.8627674560174052 1.3828445991407012 0.7755536344821091 1.3981748326150958 0.6888741106282265 1.4159710553883207 C 0.6618715278060354 1.4215195313106885 0.6427190109184537 1.414573661452317 0.6256214851132308 1.3951334458132052 C 0.6155931286313212 1.383789895038586 0.6047838755381153 1.3732683406969104 0.5943445208397341 1.3622946883171156 C 0.5392707598325255 1.304508339081194 0.4842791984686111 1.246639790201978 0.4291232378181083 1.1889356406093503 C 0.4217663697432648 1.1812499739613296 0.41424510238183254 1.172413512307188 0.4019151558876815 1.1743452039246047 C 0.39316089387683406 1.1757425978606084 0.3920100988707133 1.202169783179739 0.40027116302179455 1.215362825928481 C 0.4036824259900977 1.220840451700272 0.4076340540435649 1.225962422557031 0.41206681183453264 1.2306519595812286 C 0.49229366368980954 1.315153192887811 0.5727671144749695 1.399407827264511 0.652870666865305 1.4840323600360352 C 0.6677077024799337 1.4997324919052544 0.6835311338140944 1.5033492762102054 0.7051496400005061 1.4991159945805468 C 0.8492045148738389 1.4707982174656462 0.9935881883203492 1.4441244332166325 1.1377663626586236 1.4163409537831453 C 1.1720847137340111 1.4097238824979508 1.1755781985740206 1.4041754065755827 1.175906997147198 1.3687062604940745 M 1.1757836976822564 1.5150216255580018 C 1.175906997147198 1.4797168787630823 1.1683035301424713 1.4723189108665915 1.1336974803155535 1.477744087324018 C 1.101721819074055 1.48279936538662 1.0700338565840866 1.489745235244992 1.0382636944508237 1.4958691086704203 C 0.9216224006161535 1.5182274116464811 0.804857807316542 1.540133616584423 0.6883809127684604 1.56327281617178 C 0.6646252158563959 1.5679581958395574 0.6460891962935218 1.563437215458369 0.6301424654944197 1.5455998928634966 C 0.6200730091908627 1.534338541732172 0.6091815564543624 1.5238580872121434 0.5987833015776284 1.512884434832349 C 0.5422710468127688 1.4534540927305404 0.4860053909777923 1.3938182515204955 0.4290410381748139 1.3347989076351587 C 0.42135537152679303 1.3268666420572548 0.4119435123695908 1.3102212142901508 0.39858607033426036 1.3240307543636 C 0.3895030097502358 1.333401513699155 0.3931197940551868 1.3487728469951967 0.39981906498367553 1.3604451963429933 C 0.40409344643498135 1.3678020644178368 0.41009402039546833 1.3742547364164424 0.4160123947126609 1.3805019093068123 C 0.49336225905263587 1.4617973565249158 0.5712464210740241 1.5425996058832532 0.6478564886243501 1.6245937500693586 C 0.6661870090789882 1.644198364995059 0.6847641284635092 1.6503633382421345 0.7110269144960512 1.6448559621414136 C 0.776498930379994 1.6311286217112586 0.842546343766997 1.619867270579934 0.9082649585808228 1.6071263258693111 C 0.9845462275579715 1.5923714898979766 1.0606630972485314 1.5763836592772273 1.1371087655122687 1.5624508197388367 C 1.1723313126638937 1.555998147740231 1.1757014980389617 1.5465451887613817 1.1757836976822562 1.5150216255580018 M 1.175454899109079 1.6712831474605443 C 1.175454899109079 1.6541034220120272 1.175701498038962 1.649787940739074 1.1753726994657847 1.6455135592877685 C 1.1738931058864865 1.6263610424001869 1.1648511451241088 1.6187164755738133 1.145863027523116 1.6211824648726434 C 1.137355364442152 1.622292160057117 1.1289710008261291 1.624675949712653 1.120504437566812 1.6263199425785397 C 0.9826556357622017 1.652623828432729 0.8446013348493557 1.677982418389033 0.707081331617923 1.7057658978225205 C 0.6691872960592317 1.7134515644705413 0.6416915153772745 1.7065056946121695 0.6153465297014382 1.676996022669501 C 0.5622455601332937 1.617483480924398 0.5059388044766702 1.5607246272296555 0.45082394364781436 1.503020477637028 C 0.43894609519178207 1.4905672316779353 0.42645174941104225 1.478689383221903 0.41362860505712495 1.4672636328039894 C 0.4101607056338971 1.4647213827334877 0.40569273056769256 1.463974178712177 0.4015863573145039 1.4652497415432781 C 0.3985449705126132 1.4665649358359878 0.3963255801436661 1.4716202138985897 0.39538028424578114 1.4754424973117766 C 0.39016060689659054 1.497266502606424 0.40236725392580025 1.5119802387561112 0.41621789382089663 1.5265295756192097 C 0.4922114640465152 1.6060988303281318 0.5684927330236638 1.685380386285524 0.6434177078864558 1.7659771365356254 C 0.6652006133594561 1.7894451346961597 0.6882576133035189 1.794336013472173 0.718671481322425 1.788294339690039 C 0.8520815023891407 1.7617849547276139 0.9857792222073866 1.7369195626310758 1.119353642560691 1.7112321741015943 C 1.1320534874496668 1.7088072846244111 1.1445067334087595 1.70490280156793 1.1569599793678522 1.7014093167279205 C 1.1688378278238845 1.698121330996147 1.1742219044596638 1.6895314682718883 1.1750850007142544 1.6777769192807972 C 1.1755370987523734 1.6713242472821916 1.175701498038962 1.6648715752835859 1.175454899109079 1.6712831474605443 M 2.260161392021205 1.4798812780496708 C 2.0433598328323805 1.5361058340630003 1.8261472754270835 1.5358181353114702 1.6092224167733173 1.4803333760877897 C 1.5945908802669249 1.5308039570705154 1.5979610656419925 1.5407501139091306 1.6374168944232765 1.556491345599997 C 1.6534629873695617 1.5627758415635133 1.6699820690103955 1.567778292243433 1.6868188800431756 1.571451680679567 C 1.8405322130035935 1.60568783211166 1.9949442429320132 1.605194634251894 2.149561771968669 1.5786441494678216 C 2.1770164528289793 1.5738765701567499 2.204224534759406 1.5659032047571988 2.230364021327006 1.5561625470268194 C 2.2698609499299374 1.5414899106987798 2.2731489356617107 1.530968356357104 2.260161392021205 1.4798812780496708 M 1.9475561485728257 1.4651675418999837 C 1.9916151573785925 1.4617151568816216 2.049976904117575 1.4590436684745554 2.107804353175144 1.4519333993295949 C 2.1440132960463014 1.4474946185917006 2.179646841414398 1.4373018628232022 2.2150337878526116 1.4278900036660003 C 2.2293365257858273 1.4240677202528131 2.2431460658592766 1.4166286525346754 2.2556815114616637 1.40857308749183 C 2.2692033527835833 1.399901025124277 2.2745052297760675 1.371007850506316 2.2650111709755714 1.3556776170319214 C 2.256256908964724 1.3414981785636475 2.2422829696046858 1.3487728469951967 2.2301585222187708 1.351732034153793 C 2.2259663404107592 1.3527595296949722 2.2220618573542783 1.3549789200639195 2.217910775367914 1.3560064156050988 C 2.0691705208268036 1.3930784547308466 1.918621874133218 1.3941881499153201 1.7672101311850414 1.3778304208997463 C 1.71999151766497 1.3725050853609857 1.673338442732485 1.3630011718060486 1.6277995361578395 1.3494304441415514 C 1.609058017486729 1.3439641678624776 1.600591454227412 1.3525951304083836 1.5996050585078798 1.372487444085614 C 1.5984953633234062 1.3945580483101447 1.6063865290796628 1.4105869787525414 1.6276351368712503 1.4179438468273848 C 1.6519662312863752 1.4264104100867019 1.6763795253447944 1.4356167701356681 1.7014915163712157 1.441124146236389 C 1.7777727853483645 1.4579339732900816 1.8554103484398696 1.4622494545630347 1.947556148572826 1.4651675418999837 M 1.929020129009952 1.729274995804702 C 2.017590244659605 1.7294804949129379 2.105872661557727 1.7265213077543415 2.1918534884436083 1.7021491135175695 C 2.2103895080064815 1.6969294361683787 2.228966627391003 1.6907644629213032 2.246351851947756 1.6825444985918692 C 2.267805958847579 1.6724750422883123 2.2765602208584266 1.6437051671352927 2.265504368835338 1.6219633614839397 C 2.2589694971934375 1.6090169176650808 2.2466395506992867 1.6150996912688622 2.23714549189879 1.6178533793192225 C 2.126175973451429 1.6498290405607212 2.0126171662402967 1.6587888016798045 1.8979075640230438 1.6558707143428553 C 1.8072002576477386 1.6535691243306136 1.717438247170318 1.643006470167291 1.6298134274185503 1.6178533793192225 C 1.6069619265827235 1.6113185076773222 1.5994817590429384 1.6192507732552264 1.5991118606481138 1.6432941689188212 C 1.5988241618965837 1.6628987838445215 1.6067153276528403 1.6767494237396179 1.6241416520312408 1.68427069110105 C 1.6399423734696226 1.691088044830254 1.6561865524158017 1.6968277462668584 1.6727627410398427 1.7014504165495672 C 1.7565652773784242 1.7250828139966907 1.8425461042643052 1.729521594734585 1.929020129009952 1.729274995804702 M 0.9052646716005799 1.0186179797034753 C 0.8940855201125495 1.0049728389166146 0.8804814791473361 1.0097815180493337 0.8688091297995396 1.0119598085966337 C 0.7329742192556408 1.0374005981962324 0.5973037079983305 1.0634578851205385 0.4615509970977262 1.0893507727582559 C 0.4594549061937207 1.0897617709747276 0.4573999151113622 1.0904193681210823 0.4553038242073562 1.0909947656241428 C 0.4402612894844919 1.0950225481455655 0.4357403091033031 1.1082566907159543 0.4471249596995694 1.1203400382802224 C 0.515021865060695 1.19271682420089 0.5835763675681757 1.2644771127968497 0.6515965723942428 1.3367305992525755 C 0.6644197167481601 1.3503346402177892 0.6785169555731397 1.357527109006044 0.697628372639074 1.3535815261279158 C 0.7081499269807496 1.3513621357589685 0.7191235793605442 1.3511977364723797 0.7297273333455142 1.3492249450333156 C 0.8464097270018314 1.3270721411654907 0.9631332204797959 1.3053714353357846 1.079527915384583 1.28190343717525 C 1.0950225481455662 1.2787798507300652 1.1148737620011497 1.281410239315484 1.125313116699531 1.2636551163639063 C 1.1095718850086647 1.2447902982278551 1.0897206711530814 1.2562160486457685 1.0729519439210355 1.2590930361610704 C 0.998561266739657 1.2719161805149877 0.9243349888448669 1.2863422179131445 0.850396409701607 1.301877950495775 C 0.8194482440012876 1.3083717223160278 0.7929799588605096 1.3102623141117977 0.7656896772867885 1.2875752125625595 C 0.7388514937511861 1.2652169095864987 0.7037522460645023 1.2552296529262363 0.6684474992695828 1.2584354390147157 C 0.6346223460539614 1.2614357259949591 0.6103734512821308 1.2456533944824455 0.586576654548419 1.2268296761680415 C 0.5610125654838789 1.2066085639176336 0.5601083694076412 1.1852777564827521 0.5885494459874832 1.1718381148041273 C 0.6174837204270912 1.1581107743739723 0.6203607079423932 1.1429449401861662 0.6086883585945967 1.1164766550453884 C 0.6028521839206984 1.1031603128317051 0.6132093389757853 1.0912413645540258 0.6253748861833478 1.085322990236833 C 0.6347867453405498 1.0807198102123499 0.6459658968285803 1.0794868155629351 0.6565285509919031 1.0774318244805763 C 0.7222060659840817 1.0646908797699535 0.7879657806195547 1.0522376338108608 0.8536432956117331 1.039496689100238 C 0.8720971155313129 1.0359621044385812 0.8920305290301905 1.0354689065788152 0.9052646716005794 1.0186179797034751 M 0.6737904760837147 1.1921003268761823 C 0.7076567291209833 1.2021286833580918 0.7397145900057762 1.2054166690898656 0.7645799821023145 1.22045920381273 C 0.8051455060680718 1.2449135976927965 0.8443136360978255 1.2479138846730398 0.8878794470438263 1.2348852412108868 C 0.9085115575107059 1.2287613677854585 0.9304999620919421 1.227240674384513 0.9513786714887048 1.2219798972136753 C 0.9886151099010414 1.2126502376997674 1.0288518352936213 1.2153217261068336 1.0628413877958314 1.1937032199204218 C 1.0521965339892143 1.1492743127198304 1.0112200118069852 1.128149004393185 0.9859436214939752 1.0949814483239182 C 0.9760796642986543 1.0820350045050595 0.9619413256520276 1.078582619486697 0.9452547980632763 1.0818706052184708 C 0.8667541387171805 1.097324138157807 0.7881712797277903 1.1122433734157298 0.7094651212734587 1.1267927102788282 C 0.6923264956465884 1.1299984963673075 0.6822570393430317 1.1381773608750945 0.680119848617379 1.1557680845400833 C 0.6788046543246694 1.1663307387034063 0.6765030643124279 1.1767700934017877 0.6737904760837147 1.1921003268761823 M 1.2512840700481085 1.0289751347585623 C 1.2533390611304671 1.054004926141689 1.2735190735592279 1.0657183753111328 1.2876985120275017 1.0807609100339972 C 1.3081251233861455 1.1023383163987617 1.322921059179127 1.132053487449666 1.3527595296949728 1.1413009473202795 C 1.38025531037693 1.1498497102228908 1.4076277915939455 1.134190678175319 1.4350824724542555 1.1299162967240133 C 1.4881834420223998 1.121655232572932 1.5409145131957198 1.1107226800147845 1.5935222849040982 1.099543528526754 C 1.6139077964410946 1.0952280472538012 1.6257445450754797 1.0716367496283254 1.6227853579168836 1.0421270776856568 C 1.6211002652293496 1.0251117515237282 1.6049069355003642 1.0258515483133772 1.5927002884711547 1.0247418531289036 C 1.5685746931642657 1.0226046624032508 1.5443257983924348 1.0172205857674714 1.5254198804347365 1.0039453433754353 C 1.4917591265057037 0.9802307462850179 1.4576462745385521 0.9810116428963142 1.4207797345210402 0.990834500269988 C 1.4063125973012363 0.994697883504822 1.3908590643619 0.9950677818996466 1.376391927142096 0.9990955644210693 C 1.335209905851631 1.0105624146606298 1.290904298115981 1.0092472203679204 1.2512840700481085 1.0289751347585623" fill="#4e888f" transform="matrix(1,0,0,1,0,0)" fill-rule="nonzero"></path></g><g clip-path="url(#a3e8ef9d9-591f-4815-8b3b-07a222d580ba7636189e-78f3-434d-8203-2700c85a9bb4)"><path d=" M 1.331634221368327 2.6077836835129733 C 2.036413962974008 2.6077836835129733 2.6077836835129733 2.0364139629740077 2.6077836835129733 1.3316342213683268 C 2.6077836835129733 0.6268544797626454 2.036413962974008 0.055484759223679986 1.331634221368327 0.055484759223679986 C 0.6268544797626457 0.055484759223679986 0.05548475922368022 0.6268544797626454 0.05548475922368022 1.3316342213683268 C 0.05548475922368022 2.0364139629740077 0.6268544797626457 2.6077836835129733 1.331634221368327 2.6077836835129733 Z" fill="none" transform="matrix(1,0,0,1,0,0)" fill-rule="nonzero" stroke-dasharray="none" stroke-miterlimit="4" stroke-linejoin="miter" stroke-linecap="butt" stroke-width="0.1109695184473606" stroke="#4e888f"></path></g></g><g><path d=" M -2.033331263974199 1.331634221368327 A 3.364965485342526 3.364965485342526 0 0 1 4.6965997067108525 1.331634221368327 A 3.364965485342526 3.364965485342526 0 0 1 -2.0333312639741994 1.331634221368327 Z M -1.9833312639741991 1.331634221368327 A 3.314965485342526 3.314965485342526 0 0 0 4.6465997067108535 1.331634221368327 A 3.314965485342526 3.314965485342526 0 0 0 -1.9833312639741987 1.331634221368327 Z" fill="#404040" fill-rule="nonzero"></path></g><g transform="matrix(0.7214963990788295,-0.6924181873090007,0.6924181873090007,0.7214963990788295,-0.05927806787048728,-0.5850997444879253)"><g clip-path="url(#SvgjsClipPath1006)"><path d=" M -0.7569791888439776 0.00010755229578440773 C -0.6350894236463855 0.00010755229578440773 -0.5341249927012699 -0.10064087519898313 -0.5341249927012699 -0.22274664384692322 C -0.5341249927012699 -0.3446359181275826 -0.6350894236463855 -0.44560010361423197 -0.7571951922943257 -0.44560010361423197 C -0.8790852029503841 -0.44560010361423197 -0.9798333849866852 -0.3446359181275826 -0.9798333849866852 -0.22274664384692322 C -0.9798333849866852 -0.10064087519898313 -0.8788694449585022 0.00010755229578440773 -0.7569791888439776 0.00010755229578440773 Z M -0.7569791888439776 -0.043684692677638526 C -0.8562173103955721 -0.043684692677638526 -0.9358234183536499 -0.12350778591992972 -0.9358234183536499 -0.22274664384692322 C -0.9358234183536499 -0.3219830471892537 -0.856433068387454 -0.40159013698119667 -0.7571951922943257 -0.40159013698119667 C -0.6579563343673323 -0.40159013698119667 -0.5781356957097041 -0.3219830471892537 -0.577919692259356 -0.22274664384692322 C -0.577919692259356 -0.12350778591992972 -0.657740330916984 -0.043684692677638526 -0.7569791888439776 -0.043684692677638526 Z" fill="#404040" transform="matrix(1,0,0,1,0,0)" fill-rule="nonzero"></path></g></g><g transform="matrix(-0.7214963990788295,-0.6924181873090007,-0.6924181873090007,0.7214963990788295,5.7364006196790065,2.3072880784890235)"><g clip-path="url(#SvgjsClipPath1007)"><path d=" M 3.420247631580632 0.0001075522957842967 C 3.542137396778224 0.0001075522957842967 3.64310182772334 -0.10064087519898324 3.64310182772334 -0.22274664384692333 C 3.64310182772334 -0.3446359181275827 3.542137396778224 -0.4456001036142321 3.420031628130284 -0.4456001036142321 C 3.2981416174742257 -0.4456001036142321 3.1973934354379243 -0.3446359181275827 3.1973934354379243 -0.22274664384692333 C 3.1973934354379243 -0.10064087519898324 3.2983573754661073 0.0001075522957842967 3.420247631580632 0.0001075522957842967 Z M 3.420247631580632 -0.04368469267763864 C 3.3210095100290373 -0.04368469267763864 3.2414034020709597 -0.12350778591992984 3.2414034020709597 -0.22274664384692333 C 3.2414034020709597 -0.3219830471892538 3.3207937520371558 -0.4015901369811968 3.420031628130284 -0.4015901369811968 C 3.5192704860572777 -0.4015901369811968 3.5990911247149056 -0.3219830471892538 3.5993071281652536 -0.22274664384692333 C 3.5993071281652536 -0.12350778591992984 3.5194864895076257 -0.04368469267763864 3.420247631580632 -0.04368469267763864 Z" fill="#404040" transform="matrix(1,0,0,1,0,0)" fill-rule="nonzero"></path></g></g></g><defs><clipPath id="SvgjsClipPath1005"><path d=" M 0 0 h 2.6632684427366544 v 2.6632684427366544 h -2.6632684427366544 Z"></path></clipPath><clipPath id="a3e8ef9d9-591f-4815-8b3b-07a222d580ba7636189e-78f3-434d-8203-2700c85a9bb4"><path d=" M -4.106707413829394e-17 2.663268442736654 L 2.663268442736654 2.663268442736654 L 2.663268442736654 0 L -4.106707413829394e-17 0 Z"></path></clipPath><clipPath id="SvgjsClipPath1006"><path d=" M -1.100621041670569 -0.5747758124671466 h 0.687283705653183 v 0.7118295522836539 h -0.687283705653183 Z"></path></clipPath><clipPath id="SvgjsClipPath1007"><path d=" M 3.0766057787540406 -0.5747758124671467 h 0.687283705653183 v 0.7118295522836539 h -0.687283705653183 Z"></path></clipPath></defs></svg>